<mxfile host="app.diagrams.net" modified="2024-03-27T12:26:57.997Z" agent="Mozilla/5.0 (X11; Linux x86_64) AppleWebKit/537.36 (KHTML, like Gecko) Chrome/122.0.0.0 Safari/537.36 Edg/122.0.0.0" etag="TTMPfuNP4v8cIvXcngHz" version="24.1.0" type="device">
  <diagram name="Pagina-1" id="vlm6lB6ihGMq4pOWuhoI">
    <mxGraphModel dx="666" dy="847" grid="0" gridSize="10" guides="1" tooltips="1" connect="1" arrows="1" fold="1" page="1" pageScale="1" pageWidth="1169" pageHeight="827" math="0" shadow="0">
      <root>
        <mxCell id="0" />
        <mxCell id="1" parent="0" />
        <mxCell id="eKuidUdOacCKyUzt9Vm6-3" value="" style="group" parent="1" vertex="1" connectable="0">
          <mxGeometry x="4" y="525" width="353" height="291" as="geometry" />
        </mxCell>
        <mxCell id="P0oKsgv2b1vY-4PQph8e-29" value="" style="rounded=1;whiteSpace=wrap;html=1;" parent="eKuidUdOacCKyUzt9Vm6-3" vertex="1">
          <mxGeometry y="56" width="353" height="235" as="geometry" />
        </mxCell>
        <mxCell id="P0oKsgv2b1vY-4PQph8e-30" value="&lt;font style=&quot;font-size: 20px;&quot;&gt;Slave Module 1&lt;/font&gt;" style="rounded=0;whiteSpace=wrap;html=1;" parent="eKuidUdOacCKyUzt9Vm6-3" vertex="1">
          <mxGeometry x="110" y="20.68583333333339" width="170" height="35.3125" as="geometry" />
        </mxCell>
        <mxCell id="P0oKsgv2b1vY-4PQph8e-31" value="&lt;font style=&quot;font-size: 20px;&quot;&gt;BATTERY&lt;br&gt;&lt;/font&gt;" style="rounded=1;whiteSpace=wrap;html=1;fillColor=#ffe6cc;strokeColor=#d79b00;rotation=-90;" parent="eKuidUdOacCKyUzt9Vm6-3" vertex="1">
          <mxGeometry x="-65.94" y="158.51" width="202.98" height="38.32" as="geometry" />
        </mxCell>
        <mxCell id="P0oKsgv2b1vY-4PQph8e-32" value="&lt;font style=&quot;font-size: 20px;&quot;&gt;ESC&lt;/font&gt;" style="rounded=1;whiteSpace=wrap;html=1;fillColor=#dae8fc;strokeColor=#6c8ebf;" parent="eKuidUdOacCKyUzt9Vm6-3" vertex="1">
          <mxGeometry x="55" y="173" width="280" height="53.62" as="geometry" />
        </mxCell>
        <mxCell id="P0oKsgv2b1vY-4PQph8e-34" value="&lt;font style=&quot;font-size: 20px;&quot;&gt;PWM&lt;/font&gt;" style="edgeStyle=orthogonalEdgeStyle;rounded=0;orthogonalLoop=1;jettySize=auto;html=1;exitX=0.5;exitY=1;exitDx=0;exitDy=0;entryX=0.5;entryY=0;entryDx=0;entryDy=0;" parent="eKuidUdOacCKyUzt9Vm6-3" source="P0oKsgv2b1vY-4PQph8e-35" target="P0oKsgv2b1vY-4PQph8e-32" edge="1">
          <mxGeometry relative="1" as="geometry" />
        </mxCell>
        <mxCell id="P0oKsgv2b1vY-4PQph8e-35" value="&lt;font style=&quot;font-size: 21px;&quot;&gt;RECEIVER&lt;br&gt;&lt;/font&gt;" style="rounded=1;whiteSpace=wrap;html=1;fillColor=#d5e8d4;strokeColor=#82b366;align=center;" parent="eKuidUdOacCKyUzt9Vm6-3" vertex="1">
          <mxGeometry x="55" y="75.98000000000002" width="278" height="52.97" as="geometry" />
        </mxCell>
        <mxCell id="P0oKsgv2b1vY-4PQph8e-37" value="&lt;font style=&quot;font-size: 20px;&quot;&gt;ADDR1&lt;/font&gt;" style="rounded=1;whiteSpace=wrap;html=1;fillColor=#f8cecc;strokeColor=#b85450;" parent="eKuidUdOacCKyUzt9Vm6-3" vertex="1">
          <mxGeometry x="255" y="81.86458333333337" width="73.5" height="41.197916666666664" as="geometry" />
        </mxCell>
        <mxCell id="P0oKsgv2b1vY-4PQph8e-33" value="&lt;font style=&quot;font-size: 20px;&quot;&gt;MOTOR&lt;/font&gt;" style="rounded=1;whiteSpace=wrap;html=1;fillColor=#f8cecc;strokeColor=#b85450;" parent="eKuidUdOacCKyUzt9Vm6-3" vertex="1">
          <mxGeometry x="57" y="226.62" width="279" height="53.02" as="geometry" />
        </mxCell>
        <mxCell id="eKuidUdOacCKyUzt9Vm6-2" value="" style="fillColor=#28A8E0;verticalLabelPosition=bottom;sketch=0;html=1;strokeColor=#ffffff;verticalAlign=top;align=center;points=[[0.145,0.145,0],[0.5,0,0],[0.855,0.145,0],[1,0.5,0],[0.855,0.855,0],[0.5,1,0],[0.145,0.855,0],[0,0.5,0]];pointerEvents=1;shape=mxgraph.cisco_safe.compositeIcon;bgIcon=ellipse;resIcon=mxgraph.cisco_safe.capability.wireless_connection;" parent="eKuidUdOacCKyUzt9Vm6-3" vertex="1">
          <mxGeometry x="264" width="43" height="43" as="geometry" />
        </mxCell>
        <mxCell id="eKuidUdOacCKyUzt9Vm6-14" value="" style="group" parent="1" vertex="1" connectable="0">
          <mxGeometry x="371" y="526" width="353" height="291" as="geometry" />
        </mxCell>
        <mxCell id="eKuidUdOacCKyUzt9Vm6-15" value="" style="rounded=1;whiteSpace=wrap;html=1;" parent="eKuidUdOacCKyUzt9Vm6-14" vertex="1">
          <mxGeometry y="56" width="353" height="235" as="geometry" />
        </mxCell>
        <mxCell id="eKuidUdOacCKyUzt9Vm6-16" value="&lt;font style=&quot;font-size: 20px;&quot;&gt;Slave Module 2&lt;br&gt;&lt;/font&gt;" style="rounded=0;whiteSpace=wrap;html=1;" parent="eKuidUdOacCKyUzt9Vm6-14" vertex="1">
          <mxGeometry x="110" y="20.68583333333339" width="170" height="35.3125" as="geometry" />
        </mxCell>
        <mxCell id="eKuidUdOacCKyUzt9Vm6-17" value="&lt;font style=&quot;font-size: 20px;&quot;&gt;BATTERY&lt;br&gt;&lt;/font&gt;" style="rounded=1;whiteSpace=wrap;html=1;fillColor=#ffe6cc;strokeColor=#d79b00;rotation=-90;" parent="eKuidUdOacCKyUzt9Vm6-14" vertex="1">
          <mxGeometry x="-65.94" y="158.51" width="202.98" height="38.32" as="geometry" />
        </mxCell>
        <mxCell id="eKuidUdOacCKyUzt9Vm6-18" value="&lt;font style=&quot;font-size: 20px;&quot;&gt;ESC&lt;/font&gt;" style="rounded=1;whiteSpace=wrap;html=1;fillColor=#dae8fc;strokeColor=#6c8ebf;" parent="eKuidUdOacCKyUzt9Vm6-14" vertex="1">
          <mxGeometry x="55" y="173" width="280" height="53.62" as="geometry" />
        </mxCell>
        <mxCell id="eKuidUdOacCKyUzt9Vm6-19" value="&lt;font style=&quot;font-size: 20px;&quot;&gt;PWM&lt;/font&gt;" style="edgeStyle=orthogonalEdgeStyle;rounded=0;orthogonalLoop=1;jettySize=auto;html=1;exitX=0.5;exitY=1;exitDx=0;exitDy=0;entryX=0.5;entryY=0;entryDx=0;entryDy=0;" parent="eKuidUdOacCKyUzt9Vm6-14" source="eKuidUdOacCKyUzt9Vm6-20" target="eKuidUdOacCKyUzt9Vm6-18" edge="1">
          <mxGeometry relative="1" as="geometry" />
        </mxCell>
        <mxCell id="eKuidUdOacCKyUzt9Vm6-20" value="&lt;font style=&quot;font-size: 21px;&quot;&gt;RECEIVER&lt;br&gt;&lt;/font&gt;" style="rounded=1;whiteSpace=wrap;html=1;fillColor=#d5e8d4;strokeColor=#82b366;align=center;" parent="eKuidUdOacCKyUzt9Vm6-14" vertex="1">
          <mxGeometry x="55" y="75.98000000000002" width="278" height="52.97" as="geometry" />
        </mxCell>
        <mxCell id="eKuidUdOacCKyUzt9Vm6-21" value="&lt;font style=&quot;font-size: 20px;&quot;&gt;ADDR2&lt;/font&gt;" style="rounded=1;whiteSpace=wrap;html=1;fillColor=#fff2cc;strokeColor=#d6b656;" parent="eKuidUdOacCKyUzt9Vm6-14" vertex="1">
          <mxGeometry x="255" y="81.86458333333337" width="73.5" height="41.197916666666664" as="geometry" />
        </mxCell>
        <mxCell id="eKuidUdOacCKyUzt9Vm6-22" value="&lt;font style=&quot;font-size: 20px;&quot;&gt;MOTOR&lt;/font&gt;" style="rounded=1;whiteSpace=wrap;html=1;fillColor=#f8cecc;strokeColor=#b85450;" parent="eKuidUdOacCKyUzt9Vm6-14" vertex="1">
          <mxGeometry x="57" y="226.62" width="279" height="53.02" as="geometry" />
        </mxCell>
        <mxCell id="eKuidUdOacCKyUzt9Vm6-23" value="" style="fillColor=#28A8E0;verticalLabelPosition=bottom;sketch=0;html=1;strokeColor=#ffffff;verticalAlign=top;align=center;points=[[0.145,0.145,0],[0.5,0,0],[0.855,0.145,0],[1,0.5,0],[0.855,0.855,0],[0.5,1,0],[0.145,0.855,0],[0,0.5,0]];pointerEvents=1;shape=mxgraph.cisco_safe.compositeIcon;bgIcon=ellipse;resIcon=mxgraph.cisco_safe.capability.wireless_connection;" parent="eKuidUdOacCKyUzt9Vm6-14" vertex="1">
          <mxGeometry x="264" width="43" height="43" as="geometry" />
        </mxCell>
        <mxCell id="eKuidUdOacCKyUzt9Vm6-24" value="" style="group" parent="1" vertex="1" connectable="0">
          <mxGeometry x="733" y="523" width="353" height="291" as="geometry" />
        </mxCell>
        <mxCell id="eKuidUdOacCKyUzt9Vm6-25" value="" style="rounded=1;whiteSpace=wrap;html=1;" parent="eKuidUdOacCKyUzt9Vm6-24" vertex="1">
          <mxGeometry y="56" width="353" height="235" as="geometry" />
        </mxCell>
        <mxCell id="eKuidUdOacCKyUzt9Vm6-26" value="&lt;font style=&quot;font-size: 20px;&quot;&gt;Slave Module 3&lt;/font&gt;" style="rounded=0;whiteSpace=wrap;html=1;" parent="eKuidUdOacCKyUzt9Vm6-24" vertex="1">
          <mxGeometry x="110" y="20.68583333333339" width="170" height="35.3125" as="geometry" />
        </mxCell>
        <mxCell id="eKuidUdOacCKyUzt9Vm6-27" value="&lt;font style=&quot;font-size: 20px;&quot;&gt;BATTERY&lt;br&gt;&lt;/font&gt;" style="rounded=1;whiteSpace=wrap;html=1;fillColor=#ffe6cc;strokeColor=#d79b00;rotation=-90;" parent="eKuidUdOacCKyUzt9Vm6-24" vertex="1">
          <mxGeometry x="-65.94" y="158.51" width="202.98" height="38.32" as="geometry" />
        </mxCell>
        <mxCell id="eKuidUdOacCKyUzt9Vm6-28" value="&lt;font style=&quot;font-size: 20px;&quot;&gt;ESC&lt;/font&gt;" style="rounded=1;whiteSpace=wrap;html=1;fillColor=#dae8fc;strokeColor=#6c8ebf;" parent="eKuidUdOacCKyUzt9Vm6-24" vertex="1">
          <mxGeometry x="55" y="173" width="280" height="53.62" as="geometry" />
        </mxCell>
        <mxCell id="eKuidUdOacCKyUzt9Vm6-29" value="&lt;font style=&quot;font-size: 20px;&quot;&gt;PWM&lt;/font&gt;" style="edgeStyle=orthogonalEdgeStyle;rounded=0;orthogonalLoop=1;jettySize=auto;html=1;exitX=0.5;exitY=1;exitDx=0;exitDy=0;entryX=0.5;entryY=0;entryDx=0;entryDy=0;" parent="eKuidUdOacCKyUzt9Vm6-24" source="eKuidUdOacCKyUzt9Vm6-30" target="eKuidUdOacCKyUzt9Vm6-28" edge="1">
          <mxGeometry relative="1" as="geometry" />
        </mxCell>
        <mxCell id="eKuidUdOacCKyUzt9Vm6-30" value="&lt;font style=&quot;font-size: 21px;&quot;&gt;RECEIVER&lt;br&gt;&lt;/font&gt;" style="rounded=1;whiteSpace=wrap;html=1;fillColor=#d5e8d4;strokeColor=#82b366;align=center;" parent="eKuidUdOacCKyUzt9Vm6-24" vertex="1">
          <mxGeometry x="55" y="75.98000000000002" width="278" height="52.97" as="geometry" />
        </mxCell>
        <mxCell id="eKuidUdOacCKyUzt9Vm6-31" value="&lt;font style=&quot;font-size: 20px;&quot;&gt;ADDR3&lt;/font&gt;" style="rounded=1;whiteSpace=wrap;html=1;fillColor=#dae8fc;strokeColor=#6c8ebf;" parent="eKuidUdOacCKyUzt9Vm6-24" vertex="1">
          <mxGeometry x="255" y="81.86458333333337" width="73.5" height="41.197916666666664" as="geometry" />
        </mxCell>
        <mxCell id="eKuidUdOacCKyUzt9Vm6-32" value="&lt;font style=&quot;font-size: 20px;&quot;&gt;MOTOR&lt;/font&gt;" style="rounded=1;whiteSpace=wrap;html=1;fillColor=#f8cecc;strokeColor=#b85450;" parent="eKuidUdOacCKyUzt9Vm6-24" vertex="1">
          <mxGeometry x="57" y="226.62" width="279" height="53.02" as="geometry" />
        </mxCell>
        <mxCell id="eKuidUdOacCKyUzt9Vm6-33" value="" style="fillColor=#28A8E0;verticalLabelPosition=bottom;sketch=0;html=1;strokeColor=#ffffff;verticalAlign=top;align=center;points=[[0.145,0.145,0],[0.5,0,0],[0.855,0.145,0],[1,0.5,0],[0.855,0.855,0],[0.5,1,0],[0.145,0.855,0],[0,0.5,0]];pointerEvents=1;shape=mxgraph.cisco_safe.compositeIcon;bgIcon=ellipse;resIcon=mxgraph.cisco_safe.capability.wireless_connection;" parent="eKuidUdOacCKyUzt9Vm6-24" vertex="1">
          <mxGeometry x="264" width="43" height="43" as="geometry" />
        </mxCell>
        <mxCell id="eKuidUdOacCKyUzt9Vm6-34" value="" style="group;" parent="1" vertex="1" connectable="0">
          <mxGeometry x="1099" y="522" width="353" height="291" as="geometry" />
        </mxCell>
        <mxCell id="eKuidUdOacCKyUzt9Vm6-35" value="" style="rounded=1;whiteSpace=wrap;html=1;" parent="eKuidUdOacCKyUzt9Vm6-34" vertex="1">
          <mxGeometry y="56" width="353" height="235" as="geometry" />
        </mxCell>
        <mxCell id="eKuidUdOacCKyUzt9Vm6-36" value="&lt;font style=&quot;font-size: 20px;&quot;&gt;Slave Module 4&lt;/font&gt;" style="rounded=0;whiteSpace=wrap;html=1;" parent="eKuidUdOacCKyUzt9Vm6-34" vertex="1">
          <mxGeometry x="110" y="20.68583333333339" width="170" height="35.3125" as="geometry" />
        </mxCell>
        <mxCell id="eKuidUdOacCKyUzt9Vm6-37" value="&lt;font style=&quot;font-size: 20px;&quot;&gt;BATTERY&lt;br&gt;&lt;/font&gt;" style="rounded=1;whiteSpace=wrap;html=1;fillColor=#ffe6cc;strokeColor=#d79b00;rotation=-90;" parent="eKuidUdOacCKyUzt9Vm6-34" vertex="1">
          <mxGeometry x="-65.94" y="158.51" width="202.98" height="38.32" as="geometry" />
        </mxCell>
        <mxCell id="eKuidUdOacCKyUzt9Vm6-38" value="&lt;font style=&quot;font-size: 20px;&quot;&gt;ESC&lt;/font&gt;" style="rounded=1;whiteSpace=wrap;html=1;fillColor=#dae8fc;strokeColor=#6c8ebf;" parent="eKuidUdOacCKyUzt9Vm6-34" vertex="1">
          <mxGeometry x="55" y="173" width="280" height="53.62" as="geometry" />
        </mxCell>
        <mxCell id="eKuidUdOacCKyUzt9Vm6-39" value="&lt;font style=&quot;font-size: 20px;&quot;&gt;PWM&lt;/font&gt;" style="edgeStyle=orthogonalEdgeStyle;rounded=0;orthogonalLoop=1;jettySize=auto;html=1;exitX=0.5;exitY=1;exitDx=0;exitDy=0;entryX=0.5;entryY=0;entryDx=0;entryDy=0;" parent="eKuidUdOacCKyUzt9Vm6-34" source="eKuidUdOacCKyUzt9Vm6-40" target="eKuidUdOacCKyUzt9Vm6-38" edge="1">
          <mxGeometry relative="1" as="geometry" />
        </mxCell>
        <mxCell id="eKuidUdOacCKyUzt9Vm6-40" value="&lt;font style=&quot;font-size: 21px;&quot;&gt;RECEIVER&lt;br&gt;&lt;/font&gt;" style="rounded=1;whiteSpace=wrap;html=1;fillColor=#d5e8d4;strokeColor=#82b366;align=center;" parent="eKuidUdOacCKyUzt9Vm6-34" vertex="1">
          <mxGeometry x="55" y="75.98000000000002" width="278" height="52.97" as="geometry" />
        </mxCell>
        <mxCell id="eKuidUdOacCKyUzt9Vm6-41" value="&lt;font style=&quot;font-size: 20px;&quot;&gt;ADDR4&lt;/font&gt;" style="rounded=1;whiteSpace=wrap;html=1;fillColor=#e1d5e7;strokeColor=#9673a6;" parent="eKuidUdOacCKyUzt9Vm6-34" vertex="1">
          <mxGeometry x="255" y="81.86458333333337" width="73.5" height="41.197916666666664" as="geometry" />
        </mxCell>
        <mxCell id="eKuidUdOacCKyUzt9Vm6-42" value="&lt;font style=&quot;font-size: 20px;&quot;&gt;MOTOR&lt;/font&gt;" style="rounded=1;whiteSpace=wrap;html=1;fillColor=#f8cecc;strokeColor=#b85450;" parent="eKuidUdOacCKyUzt9Vm6-34" vertex="1">
          <mxGeometry x="57" y="226.62" width="279" height="53.02" as="geometry" />
        </mxCell>
        <mxCell id="eKuidUdOacCKyUzt9Vm6-43" value="" style="fillColor=#28A8E0;verticalLabelPosition=bottom;sketch=0;html=1;strokeColor=#ffffff;verticalAlign=top;align=center;points=[[0.145,0.145,0],[0.5,0,0],[0.855,0.145,0],[1,0.5,0],[0.855,0.855,0],[0.5,1,0],[0.145,0.855,0],[0,0.5,0]];pointerEvents=1;shape=mxgraph.cisco_safe.compositeIcon;bgIcon=ellipse;resIcon=mxgraph.cisco_safe.capability.wireless_connection;" parent="eKuidUdOacCKyUzt9Vm6-34" vertex="1">
          <mxGeometry x="264" width="43" height="43" as="geometry" />
        </mxCell>
        <mxCell id="eKuidUdOacCKyUzt9Vm6-47" value="" style="group" parent="1" vertex="1" connectable="0">
          <mxGeometry x="569" y="31" width="356" height="299" as="geometry" />
        </mxCell>
        <mxCell id="P0oKsgv2b1vY-4PQph8e-1" value="" style="rounded=1;whiteSpace=wrap;html=1;" parent="eKuidUdOacCKyUzt9Vm6-47" vertex="1">
          <mxGeometry y="30" width="356" height="269" as="geometry" />
        </mxCell>
        <mxCell id="P0oKsgv2b1vY-4PQph8e-2" value="&lt;font style=&quot;font-size: 20px;&quot;&gt;Master Module&lt;/font&gt;" style="rounded=0;whiteSpace=wrap;html=1;" parent="eKuidUdOacCKyUzt9Vm6-47" vertex="1">
          <mxGeometry x="93" width="170" height="30" as="geometry" />
        </mxCell>
        <mxCell id="eKuidUdOacCKyUzt9Vm6-44" value="&lt;font style=&quot;font-size: 20px;&quot;&gt;BATTERY&lt;br&gt;&lt;/font&gt;" style="rounded=1;whiteSpace=wrap;html=1;fillColor=#ffe6cc;strokeColor=#d79b00;rotation=-90;" parent="eKuidUdOacCKyUzt9Vm6-47" vertex="1">
          <mxGeometry x="-74" y="148" width="234.98" height="38.32" as="geometry" />
        </mxCell>
        <mxCell id="eKuidUdOacCKyUzt9Vm6-45" value="&lt;font style=&quot;font-size: 21px;&quot;&gt;TRANSMITTER&lt;br&gt;&lt;/font&gt;" style="rounded=1;whiteSpace=wrap;html=1;fillColor=#d5e8d4;strokeColor=#82b366;align=center;" parent="eKuidUdOacCKyUzt9Vm6-47" vertex="1">
          <mxGeometry x="63.5" y="231" width="278" height="52.97" as="geometry" />
        </mxCell>
        <mxCell id="eKuidUdOacCKyUzt9Vm6-46" value="&lt;font style=&quot;font-size: 20px;&quot;&gt;PWM&lt;/font&gt;" style="edgeStyle=orthogonalEdgeStyle;rounded=0;orthogonalLoop=1;jettySize=auto;html=1;exitX=0.5;exitY=1;exitDx=0;exitDy=0;entryX=0.5;entryY=0;entryDx=0;entryDy=0;" parent="eKuidUdOacCKyUzt9Vm6-47" source="P0oKsgv2b1vY-4PQph8e-7" target="eKuidUdOacCKyUzt9Vm6-45" edge="1">
          <mxGeometry relative="1" as="geometry" />
        </mxCell>
        <mxCell id="P0oKsgv2b1vY-4PQph8e-7" value="" style="rounded=1;whiteSpace=wrap;html=1;fillColor=#dae8fc;strokeColor=#6c8ebf;" parent="eKuidUdOacCKyUzt9Vm6-47" vertex="1">
          <mxGeometry x="63" y="80.32" width="274" height="90.68" as="geometry" />
        </mxCell>
        <mxCell id="P0oKsgv2b1vY-4PQph8e-8" value="&lt;font style=&quot;font-size: 20px;&quot;&gt;Sensors&lt;/font&gt;" style="rounded=1;whiteSpace=wrap;html=1;fillColor=#e1d5e7;strokeColor=#9673a6;" parent="eKuidUdOacCKyUzt9Vm6-47" vertex="1">
          <mxGeometry x="201" y="91.5" width="127" height="69" as="geometry" />
        </mxCell>
        <mxCell id="P0oKsgv2b1vY-4PQph8e-9" value="&lt;font style=&quot;font-size: 20px;&quot;&gt;Radio&lt;/font&gt;" style="rounded=1;whiteSpace=wrap;html=1;fillColor=#fff2cc;strokeColor=#d6b656;" parent="eKuidUdOacCKyUzt9Vm6-47" vertex="1">
          <mxGeometry x="73" y="90.82" width="127" height="69.68" as="geometry" />
        </mxCell>
        <mxCell id="P0oKsgv2b1vY-4PQph8e-10" value="&lt;font style=&quot;font-size: 20px;&quot;&gt;Flght Controller&lt;/font&gt;" style="rounded=0;whiteSpace=wrap;html=1;fillColor=#dae8fc;strokeColor=#6c8ebf;" parent="eKuidUdOacCKyUzt9Vm6-47" vertex="1">
          <mxGeometry x="124" y="50.31999999999999" width="157" height="30" as="geometry" />
        </mxCell>
        <mxCell id="P0oKsgv2b1vY-4PQph8e-3" value="" style="fillColor=#28A8E0;verticalLabelPosition=bottom;sketch=0;html=1;strokeColor=#ffffff;verticalAlign=top;align=center;points=[[0.145,0.145,0],[0.5,0,0],[0.855,0.145,0],[1,0.5,0],[0.855,0.855,0],[0.5,1,0],[0.145,0.855,0],[0,0.5,0]];pointerEvents=1;shape=mxgraph.cisco_safe.compositeIcon;bgIcon=ellipse;resIcon=mxgraph.cisco_safe.capability.wireless_connection;rotation=90;" parent="1" vertex="1">
          <mxGeometry x="906" y="298" width="43" height="43" as="geometry" />
        </mxCell>
        <mxCell id="eKuidUdOacCKyUzt9Vm6-64" value="" style="group" parent="1" vertex="1" connectable="0">
          <mxGeometry x="348" y="392" width="910" height="91.32000000000005" as="geometry" />
        </mxCell>
        <mxCell id="P0oKsgv2b1vY-4PQph8e-13" value="" style="rounded=0;whiteSpace=wrap;html=1;fillColor=#f5f5f5;fontColor=#333333;strokeColor=#666666;" parent="eKuidUdOacCKyUzt9Vm6-64" vertex="1">
          <mxGeometry y="30" width="910" height="61.32" as="geometry" />
        </mxCell>
        <mxCell id="P0oKsgv2b1vY-4PQph8e-27" value="&lt;font style=&quot;font-size: 20px;&quot;&gt;TX Message&lt;/font&gt;" style="rounded=0;whiteSpace=wrap;html=1;fillColor=#f5f5f5;fontColor=#333333;strokeColor=#666666;" parent="eKuidUdOacCKyUzt9Vm6-64" vertex="1">
          <mxGeometry x="354" width="170" height="30" as="geometry" />
        </mxCell>
        <mxCell id="P0oKsgv2b1vY-4PQph8e-14" value="&lt;font style=&quot;font-size: 20px;&quot;&gt;ADDR1&lt;/font&gt;" style="rounded=1;whiteSpace=wrap;html=1;fillColor=#f8cecc;strokeColor=#b85450;" parent="eKuidUdOacCKyUzt9Vm6-64" vertex="1">
          <mxGeometry x="10" y="40" width="78" height="41" as="geometry" />
        </mxCell>
        <mxCell id="eKuidUdOacCKyUzt9Vm6-49" value="&lt;font style=&quot;font-size: 20px;&quot;&gt;DC[%]&lt;/font&gt;" style="rounded=1;whiteSpace=wrap;html=1;fillColor=#f8cecc;strokeColor=#b85450;" parent="eKuidUdOacCKyUzt9Vm6-64" vertex="1">
          <mxGeometry x="88" y="40" width="78" height="41" as="geometry" />
        </mxCell>
        <mxCell id="eKuidUdOacCKyUzt9Vm6-50" value="&lt;font style=&quot;font-size: 20px;&quot;&gt;ADDR2&lt;/font&gt;" style="rounded=1;whiteSpace=wrap;html=1;fillColor=#fff2cc;strokeColor=#d6b656;" parent="eKuidUdOacCKyUzt9Vm6-64" vertex="1">
          <mxGeometry x="166" y="40" width="78" height="41" as="geometry" />
        </mxCell>
        <mxCell id="eKuidUdOacCKyUzt9Vm6-51" value="&lt;font style=&quot;font-size: 20px;&quot;&gt;DC[%]&lt;/font&gt;" style="rounded=1;whiteSpace=wrap;html=1;fillColor=#fff2cc;strokeColor=#d6b656;" parent="eKuidUdOacCKyUzt9Vm6-64" vertex="1">
          <mxGeometry x="244" y="40" width="78" height="41" as="geometry" />
        </mxCell>
        <mxCell id="eKuidUdOacCKyUzt9Vm6-52" value="&lt;font style=&quot;font-size: 20px;&quot;&gt;ADDR3&lt;/font&gt;" style="rounded=1;whiteSpace=wrap;html=1;fillColor=#dae8fc;strokeColor=#6c8ebf;" parent="eKuidUdOacCKyUzt9Vm6-64" vertex="1">
          <mxGeometry x="322" y="40" width="78" height="41" as="geometry" />
        </mxCell>
        <mxCell id="eKuidUdOacCKyUzt9Vm6-53" value="&lt;font style=&quot;font-size: 20px;&quot;&gt;DC[%]&lt;/font&gt;" style="rounded=1;whiteSpace=wrap;html=1;fillColor=#dae8fc;strokeColor=#6c8ebf;" parent="eKuidUdOacCKyUzt9Vm6-64" vertex="1">
          <mxGeometry x="400" y="40" width="78" height="41" as="geometry" />
        </mxCell>
        <mxCell id="eKuidUdOacCKyUzt9Vm6-54" value="&lt;font style=&quot;font-size: 20px;&quot;&gt;ADDR4&lt;/font&gt;" style="rounded=1;whiteSpace=wrap;html=1;fillColor=#e1d5e7;strokeColor=#9673a6;" parent="eKuidUdOacCKyUzt9Vm6-64" vertex="1">
          <mxGeometry x="478" y="40" width="78" height="41" as="geometry" />
        </mxCell>
        <mxCell id="eKuidUdOacCKyUzt9Vm6-55" value="&lt;font style=&quot;font-size: 20px;&quot;&gt;DC[%]&lt;/font&gt;" style="rounded=1;whiteSpace=wrap;html=1;fillColor=#e1d5e7;strokeColor=#9673a6;" parent="eKuidUdOacCKyUzt9Vm6-64" vertex="1">
          <mxGeometry x="556" y="40" width="78" height="41" as="geometry" />
        </mxCell>
        <mxCell id="eKuidUdOacCKyUzt9Vm6-56" value="&lt;font style=&quot;font-size: 20px;&quot;&gt;1&lt;/font&gt;" style="rounded=1;whiteSpace=wrap;html=1;" parent="eKuidUdOacCKyUzt9Vm6-64" vertex="1">
          <mxGeometry x="743" y="38" width="78" height="41" as="geometry" />
        </mxCell>
        <mxCell id="eKuidUdOacCKyUzt9Vm6-57" value="&lt;font style=&quot;font-size: 20px;&quot;&gt;1&lt;/font&gt;" style="rounded=1;whiteSpace=wrap;html=1;" parent="eKuidUdOacCKyUzt9Vm6-64" vertex="1">
          <mxGeometry x="821" y="38" width="78" height="41" as="geometry" />
        </mxCell>
        <mxCell id="eKuidUdOacCKyUzt9Vm6-63" value="" style="group" parent="eKuidUdOacCKyUzt9Vm6-64" vertex="1" connectable="0">
          <mxGeometry x="650" y="51" width="77.40987767639501" height="16.636793143613488" as="geometry" />
        </mxCell>
        <mxCell id="eKuidUdOacCKyUzt9Vm6-58" value="" style="ellipse;whiteSpace=wrap;html=1;aspect=fixed;" parent="eKuidUdOacCKyUzt9Vm6-63" vertex="1">
          <mxGeometry width="16.636793143613502" height="16.636793143613502" as="geometry" />
        </mxCell>
        <mxCell id="eKuidUdOacCKyUzt9Vm6-59" value="" style="ellipse;whiteSpace=wrap;html=1;aspect=fixed;" parent="eKuidUdOacCKyUzt9Vm6-63" vertex="1">
          <mxGeometry x="30.386542266390848" width="16.636793143613502" height="16.636793143613502" as="geometry" />
        </mxCell>
        <mxCell id="eKuidUdOacCKyUzt9Vm6-60" value="" style="ellipse;whiteSpace=wrap;html=1;aspect=fixed;" parent="eKuidUdOacCKyUzt9Vm6-63" vertex="1">
          <mxGeometry x="60.77308453278147" width="16.636793143613502" height="16.636793143613502" as="geometry" />
        </mxCell>
      </root>
    </mxGraphModel>
  </diagram>
</mxfile>
